{"title":"Community 2012 DVDRip XViD juggs","uid":8252162,"size":745178057,"categoryP":"video","categoryS":"movies","magnet":"?xt=urn:btih:7c2ff836e128a0d3e020344935017c59d59d0928&amp;dn=Community+2012+DVDRip+XViD+juggs&amp;tr=udp%3A%2F%2Ftracker.openbittorrent.com%3A80&amp;tr=udp%3A%2F%2Fopen.demonii.com%3A1337&amp;tr=udp%3A%2F%2Ftracker.coppersurfer.tk%3A6969&amp;tr=udp%3A%2F%2Fexodus.desync.com%3A6969","seeders":1,"leechers":1,"uploader":"juggs99","files":3,"time":1363183021,"description":"Source : L-S\n &lt;a href=&quot;\nhttp://www.imdb.com/title/tt2087720/&quot; rel=&quot;nofollow&quot; target=&quot;_NEW&quot;&gt;\nhttp://www.imdb.com/title/tt2087720/&lt;/a&gt;\n\nFormat : AVI\nFormat/Info : Audio Video Interleave\nFile size : 699 MiB\nDuration : 1h 20mn\nOverall bit rate : 1 211 Kbps\nWriting library : VirtualDub build 32842/release\n\nVideo\nID : 0\nFormat : MPEG-4 Visual\nFormat profile : Advanced Simple@L5\nFormat settings, BVOP : 4\nFormat settings, QPel : No\nFormat settings, GMC : No warppoints\nFormat settings, Matrix : Default (H.263)\nMuxing mode : Packed bitstream\nCodec ID : XVID\nCodec ID/Hint : XviD\nDuration : 1h 20mn\nBit rate : 1 074 Kbps\nWidth : 640 pixels\nHeight : 272 pixels\nDisplay aspect ratio : 2.35:1\nFrame rate : 25.000 fps\nColor space : YUV\nChroma subsampling : 4:2:0\nBit depth : 8 bits\nScan type : Progressive\nCompression mode : Lossy\nBits/(Pixel*Frame) : 0.247\nStream size : 620 MiB (89%)\nWriting library : XviD 64\n\nAudio\nID : 1\nFormat : MPEG Audio\nFormat version : Version 1\nFormat profile : Layer 3\nCodec ID : 55\nCodec ID/Hint : MP3\nDuration : 1h 20mn\nBit rate mode : Constant\nBit rate : 128 Kbps\nChannel(s) : 2 channels\nSampling rate : 44.1 KHz\nCompression mode : Lossy\nStream size : 73.9 MiB (11%)\nAlignment : Split accross interleaves\nInterleave, duration : 40 ms (1.00 video frame)\nInterleave, preload duration : 500 ms\nWriting library : LAME3.99r\nEncoding settings : -m s -V 4 -q 3 -lowpass 17 -b 128\n\n\nPlot\nThe Draymen Estate has become an urban legend.\nAmongst the sinister stories of unsavoury locals\nand brutal violence, several people have apparently\ngone missing. But even the police won't go there.\nEnter two naive student filmmakers with a well-meaning\nplan to make a sympathetic documentary of life on the estate.\nThey soon discover, however, that problems of drugs and crime\nin this community go way beyond the norm. A community, which\nis about to present the students with material of unimaginable\nhorror urning their final project into their darkest nightmare.\n\n &lt;a href=&quot;\nhttp://www.shotpix.com/images/84746916100990410181.png&quot; rel=&quot;nofollow&quot; target=&quot;_NEW&quot;&gt;\nhttp://www.shotpix.com/images/84746916100990410181.png&lt;/a&gt; &lt;a href=&quot;\nhttp://www.shotpix.com/images/26258386688719884043.png&quot; rel=&quot;nofollow&quot; target=&quot;_NEW&quot;&gt;\nhttp://www.shotpix.com/images/26258386688719884043.png&lt;/a&gt; &lt;a href=&quot;\nhttp://www.shotpix.com/images/68484622028040915325.png&quot; rel=&quot;nofollow&quot; target=&quot;_NEW&quot;&gt;\nhttp://www.shotpix.com/images/68484622028040915325.png&lt;/a&gt;","torrent":{"xt":"urn:btih:7c2ff836e128a0d3e020344935017c59d59d0928","amp;dn":"Community+2012+DVDRip+XViD+juggs","amp;tr":["udp%3A%2F%2Ftracker.openbittorrent.com%3A80","udp%3A%2F%2Fopen.demonii.com%3A1337","udp%3A%2F%2Ftracker.coppersurfer.tk%3A6969","udp%3A%2F%2Fexodus.desync.com%3A6969"],"infoHash":"7c2ff836e128a0d3e020344935017c59d59d0928","infoHashBuffer":{"type":"Buffer","data":[124,47,248,54,225,40,160,211,224,32,52,73,53,1,124,89,213,157,9,40]},"announce":[],"urlList":[]}}